<svg width="24" height="24" viewBox="0 0 24 24" fill="none" xmlns="http://www.w3.org/2000/svg">
<path d="M2.08006 17.38C2.18154 17.6243 2.37571 17.8185 2.62006 17.92C2.74028 17.9712 2.86938 17.9984 3.00006 18L8.00006 18C8.26528 18 8.51963 17.8946 8.70717 17.7071C8.8947 17.5196 9.00006 17.2652 9.00006 17C9.00006 16.7348 8.8947 16.4804 8.70717 16.2929C8.51963 16.1054 8.26528 16 8.00006 16H5.41006L11.0001 10.41L14.2901 13.71C14.383 13.8037 14.4936 13.8781 14.6155 13.9289C14.7373 13.9797 14.868 14.0058 15.0001 14.0058C15.1321 14.0058 15.2628 13.9797 15.3846 13.9289C15.5065 13.8781 15.6171 13.8037 15.7101 13.71L21.7101 7.71C21.8038 7.61704 21.8782 7.50644 21.929 7.38458C21.9797 7.26272 22.0059 7.13201 22.0059 7C22.0059 6.86799 21.9797 6.73728 21.929 6.61542C21.8782 6.49356 21.8038 6.38296 21.7101 6.29C21.6171 6.19627 21.5065 6.12188 21.3846 6.07111C21.2628 6.02034 21.1321 5.9942 21.0001 5.9942C20.868 5.9942 20.7373 6.02034 20.6155 6.07111C20.4936 6.12188 20.383 6.19627 20.2901 6.29L15.0001 11.59L11.7101 8.29C11.6171 8.19627 11.5065 8.12188 11.3846 8.07111C11.2628 8.02034 11.1321 7.9942 11.0001 7.9942C10.868 7.9942 10.7373 8.02034 10.6155 8.07111C10.4936 8.12188 10.383 8.19627 10.2901 8.29L4.00006 14.59V12C4.00006 11.7348 3.8947 11.4804 3.70717 11.2929C3.51963 11.1054 3.26528 11 3.00006 11C2.73484 11 2.48049 11.1054 2.29295 11.2929C2.10542 11.4804 2.00006 11.7348 2.00006 12V17C2.00164 17.1307 2.02882 17.2598 2.08006 17.38Z" fill="#D13329"/>
</svg>
